<svg xmlns="http://www.w3.org/2000/svg" width="225" height="225" viewBox="0 0 225 225" version="1.1"><path d="M 60.500 0.715 C 39.648 3.598, 18.194 18.457, 8.830 36.500 C -8.616 70.116, -3.990 176, 14.925 176 C 29.952 176, 29.952 176, 30.226 118.750 C 30.549 51.207, 29.970 54.841, 42.405 42.405 C 54.108 30.702, 54.673 30.569, 94.250 30.202 C 127 29.899, 127 29.899, 127 14.949 C 127 0.657, 101.064 -4.895, 60.500 0.715 M 147 15 C 147 30, 147 30, 161.500 30 C 176 30, 176 30, 176 15 C 176 0, 176 0, 161.500 0 C 147 0, 147 0, 147 15 M 195 15 C 195 30, 195 30, 210 30 C 225 30, 225 30, 225 15 C 225 0, 225 0, 210 0 C 195 0, 195 0, 195 15 M 195 63.500 C 195 78, 195 78, 210 78 C 225 78, 225 78, 225 63.500 C 225 49, 225 49, 210 49 C 195 49, 195 49, 195 63.500 M 195 112.500 C 195 127, 195 127, 210 127 C 225 127, 225 127, 225 112.500 C 225 98, 225 98, 210 98 C 195 98, 195 98, 195 112.500 M 195 161.500 C 195 176, 195 176, 210 176 C 225 176, 225 176, 225 161.500 C 225 147, 225 147, 210 147 C 195 147, 195 147, 195 161.500 M 0 210 C 0 225, 0 225, 15 225 C 30 225, 30 225, 30 210 C 30 195, 30 195, 15 195 C 0 195, 0 195, 0 210 M 49 210 C 49 225, 49 225, 63.500 225 C 78 225, 78 225, 78 210 C 78 195, 78 195, 63.500 195 C 49 195, 49 195, 49 210 M 98 210 C 98 225, 98 225, 112.500 225 C 127 225, 127 225, 127 210 C 127 195, 127 195, 112.500 195 C 98 195, 98 195, 98 210 M 147 210 C 147 225, 147 225, 161.500 225 C 176 225, 176 225, 176 210 C 176 195, 176 195, 161.500 195 C 147 195, 147 195, 147 210 M 195 210 C 195 225, 195 225, 210 225 C 225 225, 225 225, 225 210 C 225 195, 225 195, 210 195 C 195 195, 195 195, 195 210" stroke="none" fill="#46e4b5" fill-rule="evenodd"/></svg>